<svg id="icons" enable-background="new 0 0 64 64" height="512" viewBox="0 0 64 64" width="512" xmlns="http://www.w3.org/2000/svg"><path d="m19.99 19.001v-18c0-.553-.447-1-1-1s-1 .447-1 1v12h-1v-12c0-.553-.447-1-1-1s-1 .447-1 1v12h-1v-12c0-.553-.447-1-1-1s-1 .447-1 1v12h-1v-12c0-.553-.447-1-1-1s-1 .447-1 1v18c0 1.858 1.279 3.411 3 3.858v38.641c0 1.379 1.121 2.5 2.5 2.5s2.5-1.121 2.5-2.5v-38.641c1.721-.447 3-2 3-3.858zm-5.5 42.999c-.275 0-.5-.225-.5-.5v-38.499h1v38.499c0 .275-.224.5-.5.5zm1.5-40.999h-3c-1.103 0-2-.897-2-2v-4h7v4c0 1.103-.897 2-2 2z"/><path d="m48.008.001c-.553 0-1 .447-1 1 0 .005.003.008.003.013 0 .001-.001.002-.001.003v60.483c0 1.379 1.121 2.5 2.5 2.5s2.5-1.121 2.5-2.5v-27.471h2c.553 0 1-.447 1-1v-26.026c0-3.861-3.141-7.002-7.002-7.002zm2.002 61.499c0 .275-.225.5-.5.5s-.5-.225-.5-.5v-27.471h1zm3-29.471h-4v-29.926c2.279.465 4 2.485 4 4.9z"/><path d="m43.982 7.499c0-4.136-3.365-7.501-7.502-7.501s-7.502 3.365-7.502 7.501v8c0 3.259 2.093 6.031 5.002 7.064v38.937c0 1.379 1.121 2.5 2.5 2.5s2.5-1.121 2.5-2.5v-38.937c2.909-1.033 5.002-3.806 5.002-7.064 0-.003-.002-.006-.002-.01v-7.98c0-.004.002-.007.002-.01zm-7.002 54.001c0 .275-.225.5-.5.5s-.5-.225-.5-.5v-38.524c.166.011.331.025.5.025s.334-.015.5-.025zm-.5-40.499c-3.034 0-5.502-2.468-5.502-5.502v-8c0-3.033 2.468-5.501 5.502-5.501 3.031 0 5.497 2.464 5.502 5.493 0 .003-.002.005-.002.008v8c0 .003.002.005.002.008-.004 3.03-2.47 5.494-5.502 5.494z"/><path d="m25.488 24.001c-3.032 0-5.5 2.468-5.5 5.5v5c0 2.132 1.222 3.98 3 4.893v22.108c0 1.379 1.121 2.5 2.5 2.5s2.5-1.121 2.5-2.5v-22.108c1.778-.912 3-2.761 3-4.893v-5c0-3.032-2.467-5.5-5.5-5.5zm.5 37.501c0 .275-.225.5-.5.5s-.5-.225-.5-.5v-21.526c.165.015.331.025.5.025s.335-.011.5-.025zm-.5-23.501c-1.93 0-3.5-1.57-3.5-3.5v-5c0-1.93 1.57-3.5 3.5-3.5s3.5 1.57 3.5 3.5v5c0 1.93-1.57 3.5-3.5 3.5z"/></svg>