<svg id="icons" enable-background="new 0 0 64 64" height="512" viewBox="0 0 64 64" width="512" xmlns="http://www.w3.org/2000/svg"><path d="m4.001 60.996h55.998c2.206 0 4-1.794 4-4s-1.794-4-4-4h-3.103c1.277-1.255 2.074-2.994 2.094-4.917.002-.024.015-.046.015-.071v-16.008-.001-.001c0-.553-.447-1-1-1h-13.005v-2.002h1.995c.553 0 1-.447 1-1v-2h3.004c.553 0 1-.447 1-1v-1.979h5.995c.553 0 1-.447 1-1v-6.02h1.85c.027 0 .051-.014.078-.016.027.002.051.016.078.016.553 0 1-.447 1-1v-4.994c0-.553-.447-1-1-1h-2.086c-.488-3.387-3.401-6-6.92-6-.004 0-.006.002-.01.002h-39.968c-.004 0-.006-.002-.01-.002-3.855 0-6.994 3.135-6.999 6.989 0 .001-.001.002-.001.003v11.993c0 .009-.005.016-.005.024v30.982h-1c-2.206 0-4 1.794-4 4s1.794 4.002 4 4.002zm48.109-8h-20.207c-2.702-.063-4.884-2.271-4.884-4.988v-15.01h29.985v14.956c-.001.019-.011.035-.011.054.001 2.717-2.18 4.925-4.883 4.988zm-45.104-33.973h49.988v1.994h-35.978c-.007 0-.013-.004-.02-.004s-.013.004-.02.004h-13.97zm24.994 3.995v1.974c0 .002-.001.003-.001.005 0 .553.447 1 1 1h3.005v1.995c0 .002-.001.003-.001.005 0 .553.447 1 1 1h1.997v2.002h-12.98c-.553 0-1 .447-1 1v16.01c0 1.951.805 3.718 2.098 4.988h-5.121v-29.979zm11 7.98h-2v-2.002h2zm2.995-4.002h-7.991v-1h7.991zm4.004-3h-15.999v-.979h15.999zm8.995-12.992h1.006v2.994h-1.006zm-46.995-5.999c.003 0 .005.001.007.001h39.988c.002 0 .004-.001.007-.001 2.753.003 4.993 2.244 4.993 4.999v7.02h-49.988v-7.02c0-2.755 2.24-4.996 4.993-4.999zm-4.998 18.013h12.995v29.979h-12.995zm-3 31.978h27.787c.077.003.153.012.231.012.021 0 .038-.011.059-.012h19.857c.021.001.038.012.059.012.078 0 .154-.009.231-.012h7.773c1.103 0 2 .897 2 2s-.897 2-2 2h-55.997c-1.103 0-2-.897-2-2s.897-2 2-2z"/><path d="m34.009 11.996h7.185c.415 1.161 1.516 2 2.817 2 1.654 0 3.001-1.347 3.001-3.002s-1.347-3.002-3.001-3.002c-1.304 0-2.404.841-2.818 2.004h-7.184c-.553 0-1 .447-1 1s.447 1 1 1zm10.002-2.004c.552 0 1.001.449 1.001 1.002s-.449 1.002-1.001 1.002c-.553 0-1.002-.449-1.002-1.002s.449-1.002 1.002-1.002z"/><path d="m25.033 12c.552 0 1-.447 1-1s-.448-1-1-1h-.011c-.552 0-.994.447-.994 1s.452 1 1.005 1z"/><path d="m21.029 12c.552 0 1-.447 1-1s-.448-1-1-1h-.011c-.552 0-.994.447-.994 1s.453 1 1.005 1z"/><path d="m17.025 12c.552 0 1-.447 1-1s-.448-1-1-1h-.011c-.552 0-.994.447-.994 1s.453 1 1.005 1z"/></svg>