<svg id="icons" enable-background="new 0 0 64 64" height="512" viewBox="0 0 64 64" width="512" xmlns="http://www.w3.org/2000/svg"><path d="m16.518 18.613c1.228 2.026 3.447 3.387 5.984 3.387s4.758-1.362 5.985-3.389c.01-.012.015-.026.023-.039.625-1.047.991-2.266.991-3.572 0-3.86-3.141-7-7-7s-7 3.14-7 7c0 1.304.365 2.521.988 3.567.011.016.018.032.029.046zm5.984 1.387c-1.633 0-3.071-.798-3.984-2.012.938-1.236 2.414-1.985 3.984-1.985s3.046.749 3.984 1.985c-.913 1.214-2.351 2.012-3.984 2.012zm0-10c2.757 0 5 2.243 5 5 0 .346-.035.683-.103 1.009-1.293-1.264-3.048-2.006-4.897-2.006s-3.604.742-4.897 2.006c-.067-.326-.103-.664-.103-1.009 0-2.757 2.243-5 5-5z"/><path d="m22.502 64c7.934 0 14.431-6.195 14.949-14h16.047c.13 0 .26-.026.382-.077.123-.051.234-.124.326-.217l1.999-1.999c.391-.391.391-1.023 0-1.414l-1.293-1.293 1.293-1.293c.391-.391.391-1.023 0-1.414l-1.293-1.293 1.293-1.293c.391-.391.391-1.023 0-1.414l-1.293-1.293 1.293-1.293c.391-.391.391-1.023 0-1.414l-1.293-1.293 1.293-1.293c.391-.391.391-1.023 0-1.414l-1.293-1.293 1.293-1.293c.391-.391.391-1.023 0-1.414l-1.293-1.293 1.293-1.293c.391-.391.391-1.023 0-1.414l-1.293-1.293 1.293-1.293c.391-.391.391-1.023 0-1.414l-1.293-1.293 1.293-1.293c.391-.391.391-1.023 0-1.414l-1.293-1.293 1.293-1.293c.391-.391.391-1.023 0-1.414l-1.293-1.293 1.293-1.293c.391-.391.391-1.023 0-1.414l-1.293-1.293 1.293-1.293c.391-.391.391-1.023 0-1.414l-1.999-1.999c-.093-.093-.203-.166-.326-.217-.122-.051-.252-.077-.382-.077h-30.996c-8.271 0-15 6.729-15 15v34c0 8.271 6.728 15 15 15zm30.582-62 1 1-1.293 1.293c-.391.391-.391 1.023 0 1.414l1.293 1.293-1.293 1.293c-.391.391-.391 1.023 0 1.414l1.293 1.293-1.293 1.293c-.391.391-.391 1.023 0 1.414l1.293 1.293-1.293 1.293c-.391.391-.391 1.023 0 1.414l1.293 1.293-1.293 1.293c-.391.391-.391 1.023 0 1.414l1.293 1.293-1.293 1.293c-.391.391-.391 1.023 0 1.414l1.293 1.293-1.293 1.293c-.391.391-.391 1.023 0 1.414l1.293 1.293-1.293 1.293c-.391.391-.391 1.023 0 1.414l1.293 1.293-1.293 1.293c-.391.391-.391 1.023 0 1.414l1.293 1.293-1.293 1.293c-.391.391-.391 1.023 0 1.414l1.293 1.293-1.293 1.293c-.391.391-.391 1.023 0 1.414l1.293 1.293-1 1h-15.582v-33c0-5.558-3.045-10.409-7.549-13zm-30.582 0c7.168 0 13 5.832 13 13s-5.832 13-13 13-13-5.832-13-13 5.832-13 13-13zm-13 20.452c2.592 4.503 7.441 7.548 13 7.548s10.408-3.045 13-7.548v26.548c0 7.168-5.832 13-13 13s-13-5.832-13-13z"/><path d="m22.502 40.004c.553 0 1-.447 1-1v-6.002c0-.552-.447-1-1-1s-1 .448-1 1v6.002c0 .553.447 1 1 1z"/><path d="m22.502 50.014c.553 0 1-.447 1-1v-6.002c0-.553-.447-1-1-1s-1 .447-1 1v6.002c0 .552.447 1 1 1z"/><path d="m22.502 60.023c.553 0 1-.447 1-1v-6.002c0-.553-.447-1-1-1s-1 .447-1 1v6.002c0 .553.447 1 1 1z"/></svg>