<svg id="icons" enable-background="new 0 0 64 64" height="512" viewBox="0 0 64 64" width="512" xmlns="http://www.w3.org/2000/svg"><path d="m50.996 29.504c0-.553-.447-1-1-1s-1 .447-1 1v16.996c0 .005.003.008.003.013-.008 1.648-1.349 2.987-2.999 2.987-.553 0-1 .447-1 1s.447 1 1 1c2.757 0 5-2.243 5-5 0-.007-.004-.013-.004-.02z"/><path d="m16 15.496c-3.859 0-7 3.141-7 7v2.004h-5.997-.001-.001c-1.654 0-3 1.346-3 3s1.346 3 3 3h5.999v16c0 4.963 4.037 9 8.999 9h28.001c4.963 0 9-4.037 9-9v-16h5.999c1.654 0 3-1.346 3-3s-1.346-3-3-3h-5.999v-2.004c0-3.859-3.141-7-7-7-.004 0-.006.002-.01.002h-13.17c.112-.314.185-.647.185-1 0-1.654-1.346-3-3-3s-3 1.346-3 3c0 .353.072.686.185 1h-13.18c-.004 0-.006-.002-.01-.002zm-5 9.004v-1.004h42v1.004zm-7.999 4c-.552 0-1-.448-1-1s.448-1 1-1h.001.001 5.997v2zm42.999 25h-28.001c-3.859 0-6.999-3.141-6.999-7v-20h42v20c0 3.859-3.141 7-7 7zm14.999-25h-5.999v-2h5.999c.552 0 1 .448 1 1s-.448 1-1 1zm-8.101-7.004h-41.796c.464-2.277 2.48-3.996 4.892-3.999.003 0 .005.001.007.001h1.974v.004c0 .553.447 1 1 1s1-.447 1-1v-.004h28.025c.002 0 .004-.001.007-.001 2.411.003 4.428 1.722 4.891 3.999zm-21.893-6.998c0-.552.448-1 1-1s1 .448 1 1-.448 1-1 1-1-.448-1-1z"/><path d="m19.865 9.053c-.248-.494-.849-.692-1.342-.447-.118.06-.721.395-.93 1.183-.183.688.001 1.45.545 2.267.233.35.271.544.275.614-.413.275-.565.822-.338 1.278.176.351.528.553.896.553.15 0 .303-.034.446-.105.118-.06.721-.395.93-1.183.183-.688-.001-1.45-.545-2.267-.233-.35-.271-.544-.275-.614.413-.276.566-.823.338-1.279z"/></svg>