<svg id="icons" enable-background="new 0 0 64 64" height="512" viewBox="0 0 64 64" width="512" xmlns="http://www.w3.org/2000/svg"><path d="m30.506 62.002c.553 0 1-.447 1-1s-.447-1-1-1h-11.004v-13.049c9.452-.523 16.988-8.351 16.999-17.929 0-.009.005-.016.005-.024v-13c0-.553-.447-1-1-1h-34.006c-.553 0-1 .447-1 1v13c0 .004.002.008.002.012.005 9.584 7.544 17.418 17 17.941v13.049h-11.002c-.553 0-1 .447-1 1s.447 1 1 1zm-28.006-33.998v-11.004h32.006v11.004zm.053 2h31.898c-.521 8.355-7.465 15-15.949 15s-15.429-6.645-15.949-15z"/><path d="m62.5 60.002h-7.144c-.362-1.4-1.459-2.496-2.858-2.86v-17.197c5.593-.508 9.99-5.215 9.997-10.937 0-.004.003-.008.003-.013v-25.997c0-.553-.447-1-1-1h-20.002c-.553 0-1 .447-1 1v25.5c0 .088.029.168.051.249-.021.081-.051.161-.051.249 0 5.729 4.403 10.443 10.002 10.949v17.196c-1.399.364-2.496 1.46-2.858 2.86h-7.144c-.553 0-1 .447-1 1s.447 1 1 1h22.004c.553 0 1-.447 1-1s-.447-.999-1-.999zm-2.002-54.004h-18.002v-2h18.002zm-18.002 2h18.002v2h-18.002zm0 20.998c0-.088-.028-.168-.05-.249.021-.081.05-.161.05-.249v-16.5h18.002v16.988c0 .004-.002.006-.002.01 0 4.963-4.037 9-9 9s-9-4.037-9-9zm9.002 30.004c.737 0 1.376.406 1.723 1.002h-3.445c.346-.596.985-1.002 1.722-1.002z"/><path d="m28.534 37.998c.552 0 1-.447 1-1s-.448-1-1-1h-.011c-.552 0-.994.447-.994 1s.452 1 1.005 1z"/><path d="m25.532 41.002c.552 0 1-.447 1-1s-.448-1-1-1h-.011c-.552 0-.994.447-.994 1s.452 1 1.005 1z"/><path d="m57.562 31.988c.552 0 1-.447 1-1s-.448-1-1-1h-.011c-.552 0-.994.447-.994 1s.452 1 1.005 1z"/><path d="m54.558 34.992c.552 0 1-.447 1-1s-.448-1-1-1h-.011c-.552 0-.994.447-.994 1s.452 1 1.005 1z"/></svg>